<?xml version="1.0" encoding="utf-8"?>
<!-- Generator: Adobe Illustrator 27.3.1, SVG Export Plug-In . SVG Version: 6.00 Build 0)  -->
<svg version="1.1" id="Layer_1" xmlns="http://www.w3.org/2000/svg" xmlns:xlink="http://www.w3.org/1999/xlink" x="0px" y="0px"
	 viewBox="0 0 310.63 101" style="enable-background:new 0 0 310.63 101;" xml:space="preserve">
<style type="text/css">
	.st0{fill:#423F3F;}
	.st1{fill:url(#SVGID_1_);}
</style>
<g>
	<path class="st0" d="M109.66,41.67c-0.15-0.07-0.32-0.12-0.48-0.17c0.66-0.35,1.2-0.82,1.6-1.41c0.44-0.66,0.66-1.43,0.66-2.32
		c0-1.33-0.54-2.4-1.62-3.21c-1.08-0.81-2.69-1.22-4.83-1.22h-8.33v17.04h8.81c2.24,0,3.94-0.41,5.09-1.23
		c1.15-0.82,1.73-1.96,1.73-3.42c0-0.99-0.23-1.83-0.69-2.51C111.14,42.54,110.49,42.02,109.66,41.67z M104.5,36.3
		c0.96,0,1.69,0.17,2.2,0.5c0.51,0.33,0.77,0.83,0.77,1.5c0,0.68-0.26,1.19-0.77,1.52c-0.51,0.33-1.25,0.5-2.2,0.5h-3.92V36.3H104.5
		z M107.51,46.91c-0.53,0.33-1.3,0.5-2.32,0.5h-4.6v-4.21h4.6c1.02,0,1.8,0.17,2.32,0.52c0.53,0.35,0.79,0.88,0.79,1.59
		C108.3,46.04,108.04,46.57,107.51,46.91z"/>
	<polygon class="st0" points="121.67,33.33 117.72,33.33 117.72,50.38 130.21,50.38 130.21,47.16 121.67,47.16 	"/>
	<path class="st0" d="M149.48,35.55c-0.84-0.8-1.82-1.41-2.95-1.85s-2.37-0.66-3.71-0.66c-1.33,0-2.56,0.22-3.7,0.66
		c-1.14,0.44-2.13,1.05-2.97,1.85c-0.84,0.8-1.5,1.73-1.96,2.8c-0.46,1.07-0.69,2.24-0.69,3.51s0.23,2.43,0.69,3.51
		c0.46,1.07,1.11,2,1.95,2.8c0.84,0.8,1.83,1.41,2.97,1.85c1.14,0.44,2.39,0.66,3.74,0.66c1.33,0,2.56-0.22,3.69-0.66
		c1.13-0.44,2.11-1.05,2.95-1.84c0.84-0.79,1.49-1.72,1.96-2.8c0.47-1.08,0.71-2.25,0.71-3.52c0-1.28-0.24-2.45-0.71-3.52
		C150.97,37.27,150.31,36.34,149.48,35.55z M147.75,44.07c-0.27,0.67-0.64,1.24-1.13,1.73c-0.49,0.49-1.05,0.86-1.69,1.12
		s-1.34,0.39-2.11,0.39c-0.76,0-1.47-0.13-2.12-0.39c-0.65-0.26-1.21-0.63-1.69-1.12c-0.48-0.49-0.85-1.07-1.12-1.74
		c-0.27-0.67-0.4-1.41-0.4-2.2c0-0.81,0.13-1.55,0.4-2.22c0.27-0.67,0.65-1.24,1.13-1.73c0.49-0.49,1.05-0.86,1.69-1.12
		c0.64-0.26,1.34-0.39,2.11-0.39c0.76,0,1.47,0.13,2.12,0.39c0.65,0.26,1.21,0.63,1.69,1.12c0.48,0.49,0.85,1.06,1.12,1.73
		c0.27,0.67,0.4,1.4,0.4,2.22S148.02,43.4,147.75,44.07z"/>
	<path class="st0" d="M172.46,35.55c-0.84-0.8-1.82-1.41-2.95-1.85s-2.37-0.66-3.71-0.66c-1.33,0-2.56,0.22-3.7,0.66
		c-1.14,0.44-2.13,1.05-2.97,1.85c-0.84,0.8-1.5,1.73-1.96,2.8c-0.46,1.07-0.69,2.24-0.69,3.51s0.23,2.43,0.69,3.51
		c0.46,1.07,1.11,2,1.95,2.8c0.84,0.8,1.83,1.41,2.97,1.85c1.14,0.44,2.39,0.66,3.74,0.66c1.33,0,2.56-0.22,3.69-0.66
		c1.13-0.44,2.11-1.05,2.95-1.84c0.84-0.79,1.49-1.72,1.96-2.8c0.47-1.08,0.71-2.25,0.71-3.52c0-1.28-0.24-2.45-0.71-3.52
		C173.95,37.27,173.3,36.34,172.46,35.55z M170.73,44.07c-0.27,0.67-0.64,1.24-1.13,1.73c-0.49,0.49-1.05,0.86-1.69,1.12
		s-1.34,0.39-2.11,0.39s-1.47-0.13-2.12-0.39s-1.21-0.63-1.69-1.12c-0.48-0.49-0.85-1.07-1.12-1.74c-0.27-0.67-0.4-1.41-0.4-2.2
		c0-0.81,0.13-1.55,0.4-2.22c0.27-0.67,0.65-1.24,1.13-1.73c0.49-0.49,1.05-0.86,1.69-1.12c0.64-0.26,1.34-0.39,2.11-0.39
		s1.47,0.13,2.12,0.39c0.65,0.26,1.21,0.63,1.69,1.12c0.48,0.49,0.85,1.06,1.12,1.73c0.27,0.67,0.4,1.4,0.4,2.22
		S171,43.4,170.73,44.07z"/>
	<path class="st0" d="M193.17,34.39c-1.41-0.71-3.04-1.06-4.89-1.06h-7.74v17.04h7.74c1.85,0,3.48-0.35,4.89-1.06
		c1.41-0.71,2.52-1.7,3.31-2.97c0.8-1.27,1.19-2.77,1.19-4.49c0-1.74-0.4-3.24-1.19-4.5C195.68,36.08,194.58,35.1,193.17,34.39z
		 M192.98,44.65c-0.46,0.8-1.11,1.41-1.95,1.84c-0.84,0.43-1.82,0.65-2.96,0.65h-3.6V36.57h3.6c1.14,0,2.12,0.22,2.96,0.65
		c0.84,0.43,1.49,1.04,1.95,1.83c0.46,0.79,0.69,1.72,0.69,2.81C193.68,42.93,193.45,43.86,192.98,44.65z"/>
	<polygon class="st0" points="224.08,40.05 216.34,40.05 216.34,33.33 212.4,33.33 212.4,50.38 216.34,50.38 216.34,43.39 
		224.08,43.39 224.08,50.38 228.03,50.38 228.03,33.33 224.08,33.33 	"/>
	<polygon class="st0" points="238.42,43.27 246.34,43.27 246.34,40.2 238.42,40.2 238.42,36.5 247.38,36.5 247.38,33.33 
		234.5,33.33 234.5,50.38 247.7,50.38 247.7,47.21 238.42,47.21 	"/>
	<path class="st0" d="M264.6,44.9c1.1-0.49,1.96-1.19,2.56-2.11c0.6-0.92,0.9-2.01,0.9-3.27c0-1.28-0.3-2.39-0.9-3.31
		c-0.6-0.93-1.45-1.64-2.56-2.13c-1.1-0.5-2.42-0.74-3.94-0.74h-7.38v17.04h3.94v-4.75h3.43c0.06,0,0.12-0.01,0.18-0.01l3.28,4.75
		h4.26l-3.81-5.46C264.57,44.91,264.58,44.9,264.6,44.9z M263.16,37.33c0.6,0.52,0.9,1.25,0.9,2.19c0,0.93-0.3,1.65-0.9,2.18
		c-0.6,0.53-1.51,0.79-2.73,0.79h-3.21v-5.94h3.21C261.65,36.55,262.56,36.81,263.16,37.33z"/>
	<path class="st0" d="M288.51,35.55c-0.84-0.8-1.82-1.41-2.95-1.85c-1.13-0.44-2.37-0.66-3.71-0.66c-1.33,0-2.57,0.22-3.7,0.66
		c-1.14,0.44-2.13,1.05-2.97,1.85c-0.84,0.8-1.5,1.73-1.96,2.8c-0.46,1.07-0.69,2.24-0.69,3.51s0.23,2.43,0.69,3.51
		c0.46,1.07,1.11,2,1.95,2.8c0.84,0.8,1.83,1.41,2.97,1.85c1.14,0.44,2.39,0.66,3.74,0.66c1.33,0,2.56-0.22,3.69-0.66
		c1.13-0.44,2.11-1.05,2.95-1.84c0.84-0.79,1.49-1.72,1.96-2.8c0.47-1.08,0.71-2.25,0.71-3.52c0-1.28-0.24-2.45-0.71-3.52
		C290,37.27,289.35,36.34,288.51,35.55z M286.79,44.07c-0.27,0.67-0.65,1.24-1.13,1.73c-0.49,0.49-1.05,0.86-1.69,1.12
		c-0.64,0.26-1.34,0.39-2.11,0.39c-0.76,0-1.47-0.13-2.12-0.39c-0.65-0.26-1.21-0.63-1.69-1.12c-0.48-0.49-0.85-1.07-1.12-1.74
		c-0.27-0.67-0.4-1.41-0.4-2.2c0-0.81,0.13-1.55,0.4-2.22c0.27-0.67,0.64-1.24,1.13-1.73c0.49-0.49,1.05-0.86,1.69-1.12
		c0.64-0.26,1.34-0.39,2.11-0.39c0.76,0,1.47,0.13,2.12,0.39c0.65,0.26,1.21,0.63,1.69,1.12c0.48,0.49,0.85,1.06,1.12,1.73
		c0.27,0.67,0.4,1.4,0.4,2.22S287.05,43.4,286.79,44.07z"/>
	<path class="st0" d="M308.87,43.17c-0.37-0.58-0.84-1.05-1.42-1.41c-0.58-0.36-1.23-0.64-1.94-0.85c-0.71-0.21-1.41-0.4-2.12-0.56
		c-0.71-0.16-1.35-0.32-1.94-0.49s-1.06-0.38-1.41-0.65c-0.36-0.27-0.54-0.62-0.54-1.06c0-0.37,0.11-0.7,0.32-0.99
		c0.21-0.28,0.56-0.51,1.05-0.69c0.49-0.18,1.11-0.27,1.87-0.27c0.76,0,1.54,0.11,2.34,0.33c0.8,0.22,1.59,0.56,2.39,1.01l1.22-2.99
		c-0.8-0.5-1.71-0.88-2.75-1.13c-1.04-0.25-2.09-0.38-3.17-0.38c-1.61,0-2.94,0.24-4,0.72c-1.06,0.48-1.86,1.12-2.39,1.92
		c-0.53,0.8-0.79,1.69-0.79,2.67c0,0.91,0.18,1.66,0.55,2.24s0.84,1.06,1.42,1.41c0.58,0.36,1.23,0.65,1.94,0.88
		c0.71,0.23,1.41,0.42,2.12,0.57c0.71,0.15,1.35,0.32,1.94,0.49c0.58,0.17,1.05,0.39,1.41,0.66c0.36,0.27,0.54,0.63,0.54,1.08
		c0,0.36-0.11,0.67-0.34,0.95c-0.23,0.28-0.58,0.49-1.06,0.64c-0.48,0.15-1.11,0.23-1.89,0.23c-1.02,0-2.03-0.17-3.03-0.5
		c-1-0.33-1.86-0.76-2.59-1.28l-1.34,2.97c0.76,0.58,1.77,1.06,3.02,1.42s2.56,0.55,3.92,0.55c1.62,0,2.97-0.24,4.03-0.73
		c1.06-0.49,1.86-1.13,2.4-1.92c0.54-0.8,0.8-1.67,0.8-2.63C309.41,44.49,309.23,43.75,308.87,43.17z"/>
</g>
<g>
	<path class="st0" d="M102.31,64.05c-0.07-0.03-0.15-0.04-0.23-0.07c0.3-0.15,0.54-0.35,0.72-0.62c0.19-0.29,0.29-0.62,0.29-1.01
		c0-0.58-0.23-1.04-0.7-1.39c-0.47-0.35-1.17-0.53-2.1-0.53h-3.62v7.4h3.83c0.97,0,1.71-0.18,2.21-0.53
		c0.5-0.36,0.75-0.85,0.75-1.49c0-0.43-0.1-0.79-0.3-1.09C102.95,64.43,102.67,64.2,102.31,64.05z M100.07,61.72
		c0.42,0,0.73,0.07,0.96,0.22c0.22,0.14,0.33,0.36,0.33,0.65c0,0.3-0.11,0.52-0.33,0.66c-0.22,0.14-0.54,0.22-0.96,0.22h-1.7v-1.74
		H100.07z M101.37,66.32c-0.23,0.14-0.57,0.22-1.01,0.22h-2v-1.83h2c0.44,0,0.78,0.08,1.01,0.23c0.23,0.15,0.34,0.38,0.34,0.69
		C101.72,65.95,101.6,66.18,101.37,66.32z"/>
	<polygon class="st0" points="112.16,64.74 115.6,64.74 115.6,63.41 112.16,63.41 112.16,61.8 116.05,61.8 116.05,60.43 
		110.46,60.43 110.46,67.83 116.19,67.83 116.19,66.46 112.16,66.46 	"/>
	<polygon class="st0" points="137.04,63.35 133.68,63.35 133.68,60.43 131.97,60.43 131.97,67.83 133.68,67.83 133.68,64.8 
		137.04,64.8 137.04,67.83 138.75,67.83 138.75,60.43 137.04,60.43 	"/>
	<polygon class="st0" points="147.92,64.74 151.36,64.74 151.36,63.41 147.92,63.41 147.92,61.8 151.81,61.8 151.81,60.43 
		146.22,60.43 146.22,67.83 151.95,67.83 151.95,66.46 147.92,66.46 	"/>
	<path class="st0" d="M163.94,65.45c0.48-0.21,0.85-0.52,1.11-0.91c0.26-0.4,0.39-0.87,0.39-1.42c0-0.56-0.13-1.04-0.39-1.44
		c-0.26-0.4-0.63-0.71-1.11-0.92c-0.48-0.22-1.05-0.32-1.71-0.32h-3.2v7.4h1.71v-2.06h1.49c0.03,0,0.05-0.01,0.08-0.01l1.42,2.07
		h1.85l-1.65-2.37C163.93,65.45,163.93,65.45,163.94,65.45z M163.31,62.16c0.26,0.23,0.39,0.54,0.39,0.95c0,0.4-0.13,0.72-0.39,0.95
		c-0.26,0.23-0.66,0.34-1.18,0.34h-1.4v-2.58h1.4C162.66,61.83,163.05,61.94,163.31,62.16z"/>
	<path class="st0" d="M178.98,61.39c-0.36-0.35-0.79-0.61-1.28-0.8c-0.49-0.19-1.03-0.29-1.61-0.29c-0.58,0-1.11,0.09-1.61,0.29
		c-0.49,0.19-0.92,0.46-1.29,0.8c-0.37,0.35-0.65,0.75-0.85,1.22c-0.2,0.47-0.3,0.97-0.3,1.52c0,0.55,0.1,1.06,0.3,1.52
		c0.2,0.47,0.48,0.87,0.85,1.22c0.36,0.35,0.79,0.61,1.29,0.8c0.5,0.19,1.04,0.29,1.62,0.29c0.58,0,1.11-0.09,1.6-0.29
		c0.49-0.19,0.92-0.46,1.28-0.8c0.36-0.34,0.65-0.75,0.85-1.22c0.2-0.47,0.31-0.98,0.31-1.53c0-0.56-0.1-1.07-0.31-1.53
		C179.62,62.14,179.34,61.74,178.98,61.39z M178.23,65.09c-0.12,0.29-0.28,0.54-0.49,0.75c-0.21,0.21-0.46,0.37-0.73,0.49
		c-0.28,0.11-0.58,0.17-0.91,0.17s-0.64-0.06-0.92-0.17c-0.28-0.11-0.53-0.28-0.74-0.49c-0.21-0.21-0.37-0.46-0.49-0.76
		c-0.12-0.29-0.17-0.61-0.17-0.96c0-0.35,0.06-0.67,0.17-0.96c0.12-0.29,0.28-0.54,0.49-0.75c0.21-0.21,0.46-0.37,0.73-0.49
		c0.28-0.11,0.58-0.17,0.91-0.17s0.64,0.06,0.92,0.17c0.28,0.11,0.53,0.28,0.73,0.49s0.37,0.46,0.49,0.75
		c0.12,0.29,0.17,0.61,0.17,0.96C178.4,64.48,178.34,64.8,178.23,65.09z"/>
	<path class="st0" d="M200.55,64.09c-0.25-0.15-0.53-0.28-0.84-0.37c-0.31-0.09-0.61-0.17-0.92-0.24c-0.31-0.07-0.59-0.14-0.84-0.21
		c-0.25-0.07-0.46-0.16-0.61-0.28c-0.15-0.12-0.23-0.27-0.23-0.46c0-0.16,0.05-0.3,0.14-0.43c0.09-0.12,0.24-0.22,0.45-0.3
		c0.21-0.08,0.48-0.12,0.81-0.12c0.33,0,0.67,0.05,1.01,0.14c0.35,0.1,0.69,0.24,1.04,0.44l0.53-1.3c-0.35-0.22-0.74-0.38-1.19-0.49
		c-0.45-0.11-0.91-0.16-1.37-0.16c-0.7,0-1.28,0.1-1.74,0.31c-0.46,0.21-0.81,0.49-1.04,0.84c-0.23,0.35-0.34,0.73-0.34,1.16
		c0,0.4,0.08,0.72,0.24,0.97c0.16,0.25,0.36,0.46,0.62,0.61c0.25,0.16,0.53,0.28,0.84,0.38c0.31,0.1,0.61,0.18,0.92,0.25
		c0.31,0.07,0.59,0.14,0.84,0.21c0.25,0.07,0.46,0.17,0.61,0.29c0.15,0.12,0.23,0.27,0.23,0.47c0,0.15-0.05,0.29-0.15,0.41
		c-0.1,0.12-0.25,0.21-0.46,0.28c-0.21,0.07-0.48,0.1-0.82,0.1c-0.44,0-0.88-0.07-1.32-0.22c-0.43-0.14-0.81-0.33-1.13-0.56
		l-0.58,1.29c0.33,0.25,0.77,0.46,1.31,0.62c0.54,0.16,1.11,0.24,1.7,0.24c0.7,0,1.29-0.11,1.75-0.32c0.46-0.21,0.81-0.49,1.04-0.84
		c0.23-0.35,0.35-0.73,0.35-1.14c0-0.39-0.08-0.71-0.24-0.96C201.01,64.45,200.8,64.24,200.55,64.09z"/>
	<path class="st0" d="M210.62,60.43l-3.3,7.4h1.75l0.66-1.59h3.43l0.66,1.59h1.8l-3.31-7.4H210.62z M210.27,64.94l1.18-2.83
		l1.17,2.83H210.27z"/>
	<polygon class="st0" points="224.83,65.72 222.58,60.43 220.73,60.43 223.92,67.83 225.61,67.83 228.81,60.43 227.11,60.43 	"/>
	<polygon class="st0" points="236.84,64.74 240.27,64.74 240.27,63.41 236.84,63.41 236.84,61.8 240.73,61.8 240.73,60.43 
		235.14,60.43 235.14,67.83 240.87,67.83 240.87,66.46 236.84,66.46 	"/>
	<polygon class="st0" points="258.35,60.43 256.64,60.43 256.64,67.83 262.06,67.83 262.06,66.44 258.35,66.44 	"/>
	<rect x="268.74" y="60.43" class="st0" width="1.71" height="7.4"/>
	<polygon class="st0" points="281,65.72 278.75,60.43 276.9,60.43 280.09,67.83 281.78,67.83 284.99,60.43 283.28,60.43 	"/>
	<polygon class="st0" points="293.01,64.74 296.45,64.74 296.45,63.41 293.01,63.41 293.01,61.8 296.9,61.8 296.9,60.43 
		291.31,60.43 291.31,67.83 297.04,67.83 297.04,66.46 293.01,66.46 	"/>
	<path class="st0" d="M309.45,64.7c-0.16-0.25-0.36-0.46-0.62-0.61c-0.25-0.15-0.53-0.28-0.84-0.37c-0.31-0.09-0.61-0.17-0.92-0.24
		c-0.31-0.07-0.59-0.14-0.84-0.21c-0.25-0.07-0.46-0.16-0.61-0.28c-0.16-0.12-0.23-0.27-0.23-0.46c0-0.16,0.05-0.3,0.14-0.43
		s0.24-0.22,0.45-0.3s0.48-0.12,0.81-0.12s0.67,0.05,1.02,0.14c0.35,0.1,0.69,0.24,1.04,0.44l0.53-1.3
		c-0.35-0.22-0.74-0.38-1.19-0.49c-0.45-0.11-0.91-0.16-1.38-0.16c-0.7,0-1.28,0.1-1.74,0.31c-0.46,0.21-0.81,0.49-1.04,0.84
		c-0.23,0.35-0.34,0.73-0.34,1.16c0,0.4,0.08,0.72,0.24,0.97c0.16,0.25,0.36,0.46,0.62,0.61c0.25,0.16,0.53,0.28,0.84,0.38
		c0.31,0.1,0.61,0.18,0.92,0.25c0.31,0.07,0.59,0.14,0.84,0.21c0.25,0.07,0.46,0.17,0.61,0.29c0.16,0.12,0.23,0.27,0.23,0.47
		c0,0.15-0.05,0.29-0.15,0.41c-0.1,0.12-0.25,0.21-0.46,0.28c-0.21,0.07-0.48,0.1-0.82,0.1c-0.44,0-0.88-0.07-1.32-0.22
		c-0.43-0.14-0.81-0.33-1.13-0.56l-0.58,1.29c0.33,0.25,0.77,0.46,1.31,0.62c0.54,0.16,1.11,0.24,1.7,0.24
		c0.7,0,1.29-0.11,1.75-0.32c0.46-0.21,0.81-0.49,1.04-0.84c0.23-0.35,0.35-0.73,0.35-1.14C309.68,65.28,309.6,64.96,309.45,64.7z"
		/>
</g>
<g>
	<linearGradient id="SVGID_1_" gradientUnits="userSpaceOnUse" x1="-14.5033" y1="23.6389" x2="137.7386" y2="101.6762">
		<stop  offset="0.153" style="stop-color:#F36E4C"/>
		<stop  offset="0.3162" style="stop-color:#F93B4C"/>
		<stop  offset="0.4725" style="stop-color:#FD104C"/>
		<stop  offset="0.5521" style="stop-color:#FF004C"/>
		<stop  offset="0.8119" style="stop-color:#FF0E52"/>
	</linearGradient>
	<path class="st1" d="M41.02,100.04c-22.87,0-39.48-15.47-39.48-36.78c0-28.37,29.52-50.69,43.71-61.42
		c0.33-0.25,0.71-0.38,1.12-0.38c0.96,0,1.76,0.73,1.85,1.69c0.23,2.48,1.25,8.86,5.86,14.64c1.02,1.28,2.39,2.83,3.97,4.63
		c8.1,9.21,21.65,24.63,21.65,40.83C79.7,83.89,62.71,100.04,41.02,100.04z"/>
	<path class="st0" d="M46.37,2.47c0.42,0,0.81,0.31,0.85,0.78c0.26,2.89,1.38,9.29,6.08,15.17c6.3,7.9,25.4,25.9,25.4,44.84
		c0,18.93-15.68,35.78-37.67,35.78S2.55,84.09,2.55,63.26c0-27.46,28.22-49.21,43.31-60.62C46.02,2.53,46.2,2.47,46.37,2.47
		 M46.37,0.47L46.37,0.47c-0.62,0-1.22,0.2-1.72,0.58C30.34,11.87,0.55,34.4,0.55,63.26c0,10.6,4.13,20.25,11.64,27.17
		c7.41,6.84,17.66,10.61,28.84,10.61c10.94,0,21.05-4.04,28.49-11.37c7.21-7.11,11.19-16.5,11.19-26.41
		c0-16.58-13.71-32.17-21.9-41.49c-1.57-1.79-2.93-3.33-3.94-4.59c-4.44-5.57-5.43-11.72-5.65-14.1
		C49.08,1.59,47.86,0.47,46.37,0.47L46.37,0.47z"/>
</g>
</svg>
