<?xml version="1.0" encoding="utf-8"?>
<!-- Generator: Adobe Illustrator 26.0.1, SVG Export Plug-In . SVG Version: 6.00 Build 0)  -->
<svg version="1.1" id="Layer_1" xmlns="http://www.w3.org/2000/svg" xmlns:xlink="http://www.w3.org/1999/xlink" x="0px" y="0px"
	 viewBox="0 0 300 300" style="enable-background:new 0 0 300 300;" xml:space="preserve">
<style type="text/css">
	.st0{fill:url(#SVGID_1_);}
	.st1{fill:#423F3F;}
	.st2{fill:#50D1CF;}
	.st3{fill:#CDCDCD;}
</style>
<g>
	<g>
		<g>
			<linearGradient id="SVGID_1_" gradientUnits="userSpaceOnUse" x1="72.2591" y1="72.7298" x2="286.9843" y2="182.7953">
				<stop  offset="0.153" style="stop-color:#F36E4C"/>
				<stop  offset="0.3162" style="stop-color:#F93B4C"/>
				<stop  offset="0.4725" style="stop-color:#FD104C"/>
				<stop  offset="0.5521" style="stop-color:#FF004C"/>
				<stop  offset="0.8119" style="stop-color:#FF0E52"/>
			</linearGradient>
			<path class="st0" d="M150.57,180.65c-32.3,0-55.74-21.83-55.74-51.9c0-40.14,41.88-71.81,62.01-87.03
				c0.39-0.29,0.85-0.45,1.33-0.45c1.15,0,2.1,0.87,2.21,2.03c0.41,4.42,2.04,13.04,8.43,21.05c1.46,1.83,3.4,4.04,5.66,6.6
				c11.48,13.06,30.69,34.92,30.69,57.8c0,13.61-5.46,26.49-15.36,36.26C179.58,175.1,165.65,180.65,150.57,180.65z"/>
			<path class="st1" d="M158.18,42.27c0.59,0,1.15,0.44,1.21,1.12c0.38,4.1,1.97,13.21,8.64,21.58
				c8.97,11.24,36.13,36.85,36.13,63.78s-22.31,50.9-53.59,50.9s-54.74-21.27-54.74-50.9c0-39.06,40.15-70,61.62-86.23
				C157.68,42.35,157.93,42.27,158.18,42.27 M158.18,40.27c-0.7,0-1.37,0.23-1.94,0.65c-20.26,15.32-62.41,47.18-62.41,87.83
				c0,14.83,5.78,28.34,16.28,38.03c10.39,9.59,24.76,14.87,40.45,14.87c15.34,0,29.52-5.66,39.93-15.93
				c10.1-9.96,15.66-23.09,15.66-36.97c0-23.27-19.37-45.3-30.94-58.46c-2.24-2.55-4.18-4.76-5.63-6.57
				c-6.46-8.1-7.9-17.04-8.21-20.51C161.23,41.54,159.86,40.27,158.18,40.27L158.18,40.27z"/>
		</g>
		<g>
			<path class="st2" d="M180.23,181.2c-7.76,0-14.08-6.31-14.08-14.08s6.31-14.08,14.08-14.08s14.08,6.32,14.08,14.08
				S187.99,181.2,180.23,181.2z"/>
			<path class="st1" d="M180.23,154.05c7.22,0,13.08,5.85,13.08,13.08c0,7.22-5.85,13.08-13.08,13.08
				c-7.22,0-13.08-5.85-13.08-13.08C167.15,159.91,173.01,154.05,180.23,154.05 M180.23,152.05c-8.31,0-15.08,6.76-15.08,15.08
				s6.76,15.08,15.08,15.08s15.08-6.76,15.08-15.08S188.54,152.05,180.23,152.05L180.23,152.05z"/>
		</g>
	</g>
	<g>
		<path class="st1" d="M42.45,227.49c-0.18-0.07-0.36-0.14-0.55-0.2c0.76-0.4,1.38-0.94,1.84-1.62c0.5-0.76,0.76-1.65,0.76-2.67
			c0-1.53-0.62-2.76-1.86-3.7c-1.24-0.93-3.09-1.4-5.56-1.4H27.5v19.6h10.14c2.58,0,4.53-0.47,5.85-1.41
			c1.33-0.94,1.99-2.25,1.99-3.93c0-1.14-0.27-2.1-0.8-2.88C44.15,228.49,43.4,227.89,42.45,227.49z M36.52,221.32
			c1.1,0,1.95,0.19,2.53,0.57c0.59,0.38,0.88,0.96,0.88,1.72c0,0.78-0.29,1.37-0.88,1.75s-1.43,0.57-2.53,0.57h-4.51v-4.62H36.52z
			 M39.97,233.51c-0.61,0.38-1.5,0.57-2.67,0.57h-5.29v-4.84h5.29c1.18,0,2.07,0.2,2.67,0.6s0.91,1.01,0.91,1.83
			C40.88,232.52,40.58,233.13,39.97,233.51z"/>
		<polygon class="st1" points="56.26,217.9 51.72,217.9 51.72,237.5 66.08,237.5 66.08,233.81 56.26,233.81 		"/>
		<path class="st1" d="M88.25,220.45c-0.96-0.92-2.09-1.62-3.39-2.13s-2.72-0.76-4.27-0.76c-1.53,0-2.95,0.25-4.26,0.76
			c-1.31,0.5-2.45,1.21-3.42,2.13c-0.97,0.92-1.72,1.99-2.25,3.22c-0.53,1.23-0.8,2.58-0.8,4.03s0.27,2.8,0.8,4.03
			c0.53,1.23,1.28,2.31,2.24,3.22c0.96,0.92,2.1,1.62,3.42,2.13s2.75,0.76,4.3,0.76c1.53,0,2.94-0.25,4.24-0.76s2.43-1.21,3.39-2.11
			c0.96-0.91,1.71-1.98,2.25-3.22c0.54-1.24,0.81-2.59,0.81-4.05c0-1.47-0.27-2.82-0.81-4.05
			C89.96,222.43,89.21,221.37,88.25,220.45z M86.26,230.25c-0.31,0.77-0.74,1.43-1.3,1.99c-0.56,0.56-1.21,0.99-1.95,1.29
			s-1.54,0.45-2.42,0.45s-1.69-0.15-2.44-0.45s-1.4-0.73-1.95-1.29c-0.55-0.56-0.98-1.23-1.29-2s-0.46-1.62-0.46-2.53
			c0-0.93,0.15-1.78,0.46-2.55s0.74-1.43,1.3-1.99c0.56-0.56,1.21-0.99,1.95-1.29c0.74-0.3,1.54-0.45,2.42-0.45s1.69,0.15,2.44,0.45
			s1.4,0.73,1.95,1.29c0.55,0.56,0.98,1.22,1.29,1.99c0.31,0.77,0.46,1.61,0.46,2.55S86.57,229.49,86.26,230.25z"/>
		<path class="st1" d="M114.68,220.45c-0.96-0.92-2.09-1.62-3.39-2.13s-2.72-0.76-4.27-0.76c-1.53,0-2.95,0.25-4.26,0.76
			c-1.31,0.5-2.45,1.21-3.42,2.13c-0.97,0.92-1.72,1.99-2.25,3.22c-0.53,1.23-0.8,2.58-0.8,4.03s0.27,2.8,0.8,4.03
			c0.53,1.23,1.28,2.31,2.24,3.22c0.96,0.92,2.1,1.62,3.42,2.13s2.75,0.76,4.3,0.76c1.53,0,2.94-0.25,4.24-0.76s2.43-1.21,3.39-2.11
			c0.96-0.91,1.71-1.98,2.25-3.22c0.54-1.24,0.81-2.59,0.81-4.05c0-1.47-0.27-2.82-0.81-4.05
			C116.39,222.43,115.64,221.37,114.68,220.45z M112.69,230.25c-0.31,0.77-0.74,1.43-1.3,1.99c-0.56,0.56-1.21,0.99-1.95,1.29
			s-1.54,0.45-2.42,0.45s-1.69-0.15-2.44-0.45s-1.4-0.73-1.95-1.29c-0.55-0.56-0.98-1.23-1.29-2s-0.46-1.62-0.46-2.53
			c0-0.93,0.15-1.78,0.46-2.55s0.74-1.43,1.3-1.99c0.56-0.56,1.21-0.99,1.95-1.29c0.74-0.3,1.54-0.45,2.42-0.45s1.69,0.15,2.44,0.45
			s1.4,0.73,1.95,1.29c0.55,0.56,0.98,1.22,1.29,1.99c0.31,0.77,0.46,1.61,0.46,2.55S113,229.49,112.69,230.25z"/>
		<path class="st1" d="M138.49,219.12c-1.62-0.81-3.5-1.22-5.63-1.22h-8.9v19.6h8.9c2.13,0,4-0.41,5.63-1.22
			c1.62-0.81,2.89-1.95,3.81-3.42c0.91-1.47,1.37-3.19,1.37-5.17c0-2-0.46-3.72-1.37-5.18
			C141.38,221.07,140.12,219.93,138.49,219.12z M138.28,230.92c-0.53,0.92-1.28,1.62-2.24,2.11c-0.96,0.5-2.1,0.74-3.4,0.74h-4.14
			v-12.15h4.14c1.31,0,2.44,0.25,3.4,0.74s1.71,1.19,2.24,2.1c0.53,0.91,0.8,1.98,0.8,3.23
			C139.08,228.93,138.81,230.01,138.28,230.92z"/>
		<polygon class="st1" points="174.05,225.63 165.15,225.63 165.15,217.9 160.61,217.9 160.61,237.5 165.15,237.5 165.15,229.47 
			174.05,229.47 174.05,237.5 178.59,237.5 178.59,217.9 174.05,217.9 		"/>
		<polygon class="st1" points="190.54,229.33 199.64,229.33 199.64,225.8 190.54,225.8 190.54,221.54 200.85,221.54 200.85,217.9 
			186.04,217.9 186.04,237.5 201.21,237.5 201.21,233.86 190.54,233.86 		"/>
		<path class="st1" d="M220.64,231.2c1.27-0.56,2.25-1.37,2.94-2.42c0.69-1.05,1.04-2.31,1.04-3.77c0-1.47-0.35-2.74-1.04-3.81
			c-0.69-1.06-1.67-1.88-2.94-2.45s-2.78-0.85-4.54-0.85h-8.48v19.6h4.54v-5.46h3.95c0.07,0,0.14-0.01,0.21-0.01l3.77,5.47h4.9
			l-4.38-6.29C220.62,231.21,220.63,231.21,220.64,231.2z M218.99,222.5c0.69,0.6,1.04,1.44,1.04,2.52c0,1.06-0.34,1.9-1.04,2.51
			c-0.69,0.61-1.74,0.91-3.14,0.91h-3.7v-6.83h3.7C217.25,221.6,218.3,221.9,218.99,222.5z"/>
		<path class="st1" d="M248.15,220.45c-0.96-0.92-2.09-1.62-3.39-2.13c-1.3-0.5-2.72-0.76-4.27-0.76c-1.53,0-2.95,0.25-4.26,0.76
			s-2.45,1.21-3.42,2.13s-1.72,1.99-2.25,3.22c-0.53,1.23-0.8,2.58-0.8,4.03s0.27,2.8,0.8,4.03c0.53,1.23,1.28,2.31,2.24,3.22
			c0.96,0.92,2.1,1.62,3.42,2.13c1.32,0.5,2.75,0.76,4.3,0.76c1.53,0,2.94-0.25,4.24-0.76c1.3-0.5,2.43-1.21,3.39-2.11
			c0.96-0.91,1.71-1.98,2.25-3.22c0.54-1.24,0.81-2.59,0.81-4.05c0-1.47-0.27-2.82-0.81-4.05
			C249.86,222.43,249.11,221.37,248.15,220.45z M246.16,230.25c-0.31,0.77-0.74,1.43-1.3,1.99c-0.56,0.56-1.21,0.99-1.95,1.29
			c-0.74,0.3-1.54,0.45-2.42,0.45c-0.88,0-1.69-0.15-2.44-0.45c-0.75-0.3-1.4-0.73-1.95-1.29c-0.55-0.56-0.98-1.23-1.29-2
			c-0.31-0.77-0.46-1.62-0.46-2.53c0-0.93,0.15-1.78,0.46-2.55c0.31-0.77,0.74-1.43,1.3-1.99c0.56-0.56,1.21-0.99,1.95-1.29
			s1.54-0.45,2.42-0.45c0.88,0,1.69,0.15,2.44,0.45c0.75,0.3,1.4,0.73,1.95,1.29c0.55,0.56,0.98,1.22,1.29,1.99
			c0.31,0.77,0.46,1.61,0.46,2.55S246.47,229.49,246.16,230.25z"/>
		<path class="st1" d="M271.56,229.22c-0.42-0.67-0.97-1.21-1.64-1.62c-0.67-0.41-1.41-0.74-2.23-0.98
			c-0.81-0.24-1.62-0.46-2.44-0.64c-0.81-0.19-1.55-0.37-2.23-0.56s-1.21-0.43-1.62-0.74c-0.41-0.31-0.62-0.71-0.62-1.22
			c0-0.43,0.12-0.81,0.36-1.13c0.24-0.33,0.64-0.59,1.2-0.8c0.56-0.21,1.28-0.31,2.16-0.31c0.88,0,1.77,0.13,2.69,0.38
			c0.92,0.25,1.83,0.64,2.74,1.16l1.4-3.44c-0.92-0.58-1.97-1.01-3.16-1.3c-1.2-0.29-2.41-0.43-3.64-0.43
			c-1.85,0-3.38,0.28-4.61,0.83c-1.22,0.55-2.14,1.29-2.74,2.21c-0.61,0.92-0.91,1.95-0.91,3.07c0,1.05,0.21,1.9,0.63,2.58
			s0.97,1.21,1.64,1.62c0.67,0.41,1.41,0.75,2.23,1.01c0.81,0.26,1.62,0.48,2.44,0.66c0.81,0.18,1.55,0.36,2.23,0.56
			c0.67,0.2,1.21,0.45,1.62,0.76c0.41,0.31,0.62,0.72,0.62,1.25c0,0.41-0.13,0.78-0.39,1.09s-0.67,0.56-1.22,0.74
			c-0.55,0.18-1.27,0.27-2.17,0.27c-1.18,0-2.34-0.19-3.49-0.57c-1.15-0.38-2.14-0.87-2.98-1.47l-1.54,3.42
			c0.88,0.67,2.03,1.22,3.47,1.64s2.94,0.63,4.51,0.63c1.87,0,3.41-0.28,4.63-0.84c1.22-0.56,2.14-1.3,2.76-2.21
			s0.92-1.92,0.92-3.02C272.19,230.74,271.98,229.89,271.56,229.22z"/>
	</g>
	<g>
		<path class="st3" d="M33.99,253.23c-0.08-0.03-0.18-0.05-0.26-0.08c0.34-0.18,0.62-0.41,0.82-0.71c0.22-0.33,0.33-0.72,0.33-1.16
			c0-0.66-0.27-1.2-0.81-1.6c-0.54-0.41-1.34-0.61-2.41-0.61H27.5v8.51h4.4c1.12,0,1.97-0.2,2.54-0.61
			c0.58-0.41,0.86-0.98,0.86-1.71c0-0.49-0.12-0.91-0.35-1.25S34.41,253.41,33.99,253.23z M31.42,250.55c0.48,0,0.85,0.08,1.1,0.25
			c0.26,0.17,0.38,0.42,0.38,0.75c0,0.34-0.13,0.59-0.38,0.76c-0.26,0.17-0.62,0.25-1.1,0.25h-1.96v-2.01H31.42z M32.92,255.85
			c-0.26,0.17-0.65,0.25-1.16,0.25h-2.3v-2.1h2.3c0.51,0,0.9,0.09,1.16,0.26s0.39,0.44,0.39,0.8
			C33.31,255.41,33.18,255.68,32.92,255.85z"/>
		<polygon class="st3" points="45.33,254.03 49.28,254.03 49.28,252.5 45.33,252.5 45.33,250.65 49.8,250.65 49.8,249.07 
			43.37,249.07 43.37,257.58 49.96,257.58 49.96,256 45.33,256 		"/>
		<polygon class="st3" points="73.94,252.42 70.07,252.42 70.07,249.07 68.1,249.07 68.1,257.58 70.07,257.58 70.07,254.09 
			73.94,254.09 73.94,257.58 75.91,257.58 75.91,249.07 73.94,249.07 		"/>
		<polygon class="st3" points="86.45,254.03 90.4,254.03 90.4,252.5 86.45,252.5 86.45,250.65 90.93,250.65 90.93,249.07 
			84.49,249.07 84.49,257.58 91.08,257.58 91.08,256 86.45,256 		"/>
		<path class="st3" d="M104.87,254.84c0.55-0.24,0.98-0.59,1.28-1.05c0.3-0.46,0.45-1,0.45-1.64c0-0.64-0.15-1.19-0.45-1.65
			c-0.3-0.46-0.73-0.82-1.28-1.06c-0.55-0.25-1.21-0.37-1.97-0.37h-3.68v8.51h1.97v-2.37h1.71c0.03,0,0.06-0.01,0.09-0.01l1.64,2.38
			h2.13l-1.9-2.73C104.86,254.85,104.87,254.85,104.87,254.84z M104.16,251.06c0.3,0.26,0.45,0.62,0.45,1.09
			c0,0.46-0.15,0.82-0.45,1.09c-0.3,0.26-0.75,0.39-1.36,0.39h-1.6v-2.97h1.6C103.4,250.67,103.86,250.8,104.16,251.06z"/>
		<path class="st3" d="M122.17,250.17c-0.42-0.4-0.91-0.71-1.47-0.92c-0.56-0.22-1.18-0.33-1.85-0.33c-0.66,0-1.28,0.11-1.85,0.33
			c-0.57,0.22-1.06,0.53-1.48,0.92c-0.42,0.4-0.75,0.86-0.98,1.4c-0.23,0.54-0.35,1.12-0.35,1.75c0,0.63,0.12,1.22,0.35,1.75
			c0.23,0.54,0.56,1,0.97,1.4c0.42,0.4,0.91,0.71,1.48,0.92c0.57,0.22,1.19,0.33,1.87,0.33c0.66,0,1.28-0.11,1.84-0.33
			c0.56-0.22,1.05-0.52,1.47-0.92c0.42-0.39,0.74-0.86,0.98-1.4c0.23-0.54,0.35-1.12,0.35-1.76c0-0.64-0.12-1.23-0.35-1.76
			C122.92,251.04,122.59,250.57,122.17,250.17z M121.31,254.43c-0.13,0.33-0.32,0.62-0.57,0.86c-0.24,0.24-0.52,0.43-0.85,0.56
			c-0.32,0.13-0.67,0.19-1.05,0.19c-0.38,0-0.73-0.07-1.06-0.19c-0.32-0.13-0.61-0.32-0.85-0.56c-0.24-0.24-0.43-0.53-0.56-0.87
			c-0.13-0.34-0.2-0.7-0.2-1.1c0-0.4,0.07-0.77,0.2-1.11c0.13-0.33,0.32-0.62,0.57-0.86c0.24-0.24,0.52-0.43,0.85-0.56
			c0.32-0.13,0.67-0.19,1.05-0.19c0.38,0,0.73,0.06,1.06,0.19c0.32,0.13,0.61,0.32,0.84,0.56c0.24,0.24,0.43,0.53,0.56,0.86
			c0.13,0.33,0.2,0.7,0.2,1.11C121.51,253.73,121.44,254.1,121.31,254.43z"/>
		<path class="st3" d="M146.98,253.27c-0.29-0.18-0.61-0.32-0.97-0.43c-0.35-0.11-0.7-0.2-1.06-0.28c-0.35-0.08-0.68-0.16-0.97-0.24
			c-0.29-0.08-0.53-0.19-0.71-0.32c-0.18-0.13-0.27-0.31-0.27-0.53c0-0.19,0.05-0.35,0.16-0.49c0.11-0.14,0.28-0.26,0.52-0.35
			c0.24-0.09,0.56-0.13,0.94-0.13s0.77,0.05,1.17,0.16c0.4,0.11,0.79,0.28,1.19,0.51l0.61-1.5c-0.4-0.25-0.86-0.44-1.37-0.57
			c-0.52-0.13-1.05-0.19-1.58-0.19c-0.8,0-1.47,0.12-2,0.36c-0.53,0.24-0.93,0.56-1.19,0.96c-0.26,0.4-0.39,0.85-0.39,1.33
			c0,0.45,0.09,0.83,0.27,1.12c0.18,0.29,0.42,0.53,0.71,0.71c0.29,0.18,0.61,0.32,0.97,0.44c0.35,0.11,0.7,0.21,1.06,0.29
			c0.35,0.08,0.68,0.16,0.97,0.24s0.53,0.19,0.71,0.33c0.18,0.13,0.27,0.31,0.27,0.54c0,0.18-0.06,0.34-0.17,0.47
			c-0.11,0.14-0.29,0.25-0.53,0.32c-0.24,0.08-0.55,0.12-0.94,0.12c-0.51,0-1.02-0.08-1.51-0.25c-0.5-0.17-0.93-0.38-1.29-0.64
			l-0.67,1.48c0.38,0.29,0.88,0.53,1.51,0.71c0.62,0.18,1.28,0.27,1.96,0.27c0.81,0,1.48-0.12,2.01-0.37
			c0.53-0.24,0.93-0.56,1.2-0.96c0.27-0.4,0.4-0.83,0.4-1.31c0-0.45-0.09-0.81-0.27-1.11C147.51,253.69,147.28,253.45,146.98,253.27
			z"/>
		<path class="st3" d="M158.56,249.07l-3.79,8.51h2.02l0.76-1.82h3.95l0.76,1.82h2.07l-3.81-8.51H158.56z M158.17,254.26l1.35-3.26
			l1.35,3.26H158.17z"/>
		<polygon class="st3" points="174.9,255.15 172.31,249.07 170.19,249.07 173.86,257.58 175.8,257.58 179.49,249.07 177.53,249.07 
					"/>
		<polygon class="st3" points="188.72,254.03 192.67,254.03 192.67,252.5 188.72,252.5 188.72,250.65 193.19,250.65 193.19,249.07 
			186.76,249.07 186.76,257.58 193.35,257.58 193.35,256 188.72,256 		"/>
		<polygon class="st3" points="213.46,249.07 211.49,249.07 211.49,257.58 217.73,257.58 217.73,255.97 213.46,255.97 		"/>
		<rect x="225.4" y="249.07" class="st3" width="1.97" height="8.51"/>
		<polygon class="st3" points="239.51,255.15 236.92,249.07 234.79,249.07 238.46,257.58 240.41,257.58 244.1,249.07 242.14,249.07 
					"/>
		<polygon class="st3" points="253.32,254.03 257.28,254.03 257.28,252.5 253.32,252.5 253.32,250.65 257.8,250.65 257.8,249.07 
			251.37,249.07 251.37,257.58 257.96,257.58 257.96,256 253.32,256 		"/>
		<path class="st3" d="M272.23,253.98c-0.18-0.29-0.42-0.53-0.71-0.71c-0.29-0.18-0.61-0.32-0.97-0.43
			c-0.35-0.11-0.71-0.2-1.06-0.28c-0.35-0.08-0.67-0.16-0.97-0.24c-0.29-0.08-0.53-0.19-0.7-0.32c-0.18-0.13-0.27-0.31-0.27-0.53
			c0-0.19,0.05-0.35,0.16-0.49c0.11-0.14,0.28-0.26,0.52-0.35s0.56-0.13,0.94-0.13c0.38,0,0.77,0.05,1.17,0.16
			c0.4,0.11,0.79,0.28,1.19,0.51l0.61-1.5c-0.4-0.25-0.86-0.44-1.37-0.57c-0.52-0.13-1.05-0.19-1.58-0.19c-0.8,0-1.47,0.12-2,0.36
			c-0.53,0.24-0.93,0.56-1.19,0.96c-0.26,0.4-0.39,0.85-0.39,1.33c0,0.45,0.09,0.83,0.27,1.12c0.18,0.29,0.42,0.53,0.71,0.71
			c0.29,0.18,0.61,0.32,0.97,0.44c0.35,0.11,0.71,0.21,1.06,0.29c0.35,0.08,0.67,0.16,0.97,0.24c0.29,0.09,0.53,0.19,0.7,0.33
			c0.18,0.13,0.27,0.31,0.27,0.54c0,0.18-0.06,0.34-0.17,0.47c-0.11,0.14-0.29,0.25-0.53,0.32c-0.24,0.08-0.55,0.12-0.94,0.12
			c-0.51,0-1.01-0.08-1.51-0.25c-0.5-0.17-0.93-0.38-1.3-0.64l-0.67,1.48c0.38,0.29,0.88,0.53,1.51,0.71
			c0.62,0.18,1.28,0.27,1.96,0.27c0.81,0,1.48-0.12,2.01-0.37c0.53-0.24,0.93-0.56,1.2-0.96c0.27-0.4,0.4-0.83,0.4-1.31
			C272.5,254.64,272.41,254.27,272.23,253.98z"/>
	</g>
</g>
</svg>
