<?xml version="1.0" encoding="utf-8"?>
<!-- Generator: Adobe Illustrator 27.3.1, SVG Export Plug-In . SVG Version: 6.00 Build 0)  -->
<svg version="1.1" id="Layer_1" xmlns="http://www.w3.org/2000/svg" xmlns:xlink="http://www.w3.org/1999/xlink" x="0px" y="0px"
	 viewBox="0 0 312.79 102" style="enable-background:new 0 0 312.79 102;" xml:space="preserve">
<style type="text/css">
	.st0{fill:#CDCDCD;}
	.st1{fill:url(#SVGID_1_);}
	.st2{fill:#FFFFFF;}
</style>
<g>
	<path class="st0" d="M109.94,41.63c-0.15-0.07-0.32-0.12-0.48-0.17c0.66-0.35,1.2-0.82,1.6-1.41c0.44-0.66,0.66-1.43,0.66-2.32
		c0-1.33-0.54-2.4-1.62-3.21c-1.08-0.81-2.69-1.22-4.83-1.22h-8.33v17.04h8.81c2.24,0,3.94-0.41,5.09-1.23
		c1.15-0.82,1.73-1.96,1.73-3.42c0-0.99-0.23-1.83-0.69-2.51C111.41,42.49,110.77,41.98,109.94,41.63z M104.78,36.26
		c0.96,0,1.69,0.17,2.2,0.5c0.51,0.33,0.77,0.83,0.77,1.5c0,0.68-0.26,1.19-0.77,1.52c-0.51,0.33-1.25,0.5-2.2,0.5h-3.92v-4.02
		H104.78z M107.79,46.86c-0.53,0.33-1.3,0.5-2.32,0.5h-4.6v-4.21h4.6c1.02,0,1.8,0.17,2.32,0.52s0.79,0.88,0.79,1.59
		C108.58,46,108.31,46.53,107.79,46.86z"/>
	<polygon class="st0" points="121.94,33.29 118,33.29 118,50.33 130.49,50.33 130.49,47.12 121.94,47.12 	"/>
	<path class="st0" d="M149.76,35.51c-0.84-0.8-1.82-1.41-2.95-1.85c-1.13-0.44-2.37-0.66-3.71-0.66c-1.33,0-2.56,0.22-3.7,0.66
		c-1.14,0.44-2.13,1.05-2.97,1.85c-0.84,0.8-1.5,1.73-1.96,2.8c-0.46,1.07-0.69,2.24-0.69,3.51c0,1.27,0.23,2.43,0.69,3.51
		c0.46,1.07,1.11,2,1.95,2.8c0.84,0.8,1.83,1.41,2.97,1.85s2.39,0.66,3.74,0.66c1.33,0,2.56-0.22,3.69-0.66s2.11-1.05,2.95-1.84
		c0.84-0.79,1.49-1.72,1.96-2.8c0.47-1.08,0.71-2.25,0.71-3.52c0-1.28-0.24-2.45-0.71-3.52C151.25,37.23,150.59,36.3,149.76,35.51z
		 M148.03,44.03c-0.27,0.67-0.64,1.24-1.13,1.73c-0.49,0.49-1.05,0.86-1.69,1.12c-0.64,0.26-1.34,0.39-2.11,0.39
		s-1.47-0.13-2.12-0.39c-0.65-0.26-1.21-0.63-1.69-1.12c-0.48-0.49-0.85-1.07-1.12-1.74c-0.27-0.67-0.4-1.41-0.4-2.2
		c0-0.81,0.13-1.55,0.4-2.22c0.27-0.67,0.65-1.24,1.13-1.73c0.49-0.49,1.05-0.86,1.69-1.12c0.64-0.26,1.34-0.39,2.11-0.39
		s1.47,0.13,2.12,0.39s1.21,0.63,1.69,1.12c0.48,0.49,0.85,1.06,1.12,1.73c0.27,0.67,0.4,1.4,0.4,2.22S148.3,43.36,148.03,44.03z"/>
	<path class="st0" d="M172.74,35.51c-0.84-0.8-1.82-1.41-2.95-1.85c-1.13-0.44-2.37-0.66-3.71-0.66c-1.33,0-2.56,0.22-3.7,0.66
		c-1.14,0.44-2.13,1.05-2.97,1.85c-0.84,0.8-1.5,1.73-1.96,2.8c-0.46,1.07-0.69,2.24-0.69,3.51c0,1.27,0.23,2.43,0.69,3.51
		c0.46,1.07,1.11,2,1.95,2.8c0.84,0.8,1.83,1.41,2.97,1.85c1.14,0.44,2.39,0.66,3.74,0.66c1.33,0,2.56-0.22,3.69-0.66
		s2.11-1.05,2.95-1.84c0.84-0.79,1.49-1.72,1.96-2.8c0.47-1.08,0.71-2.25,0.71-3.52c0-1.28-0.24-2.45-0.71-3.52
		C174.23,37.23,173.58,36.3,172.74,35.51z M171.01,44.03c-0.27,0.67-0.64,1.24-1.13,1.73c-0.49,0.49-1.05,0.86-1.69,1.12
		c-0.64,0.26-1.34,0.39-2.11,0.39s-1.47-0.13-2.12-0.39c-0.65-0.26-1.21-0.63-1.69-1.12c-0.48-0.49-0.85-1.07-1.12-1.74
		c-0.27-0.67-0.4-1.41-0.4-2.2c0-0.81,0.13-1.55,0.4-2.22c0.27-0.67,0.65-1.24,1.13-1.73c0.49-0.49,1.05-0.86,1.69-1.12
		c0.64-0.26,1.34-0.39,2.11-0.39s1.47,0.13,2.12,0.39s1.21,0.63,1.69,1.12c0.48,0.49,0.85,1.06,1.12,1.73
		c0.27,0.67,0.4,1.4,0.4,2.22S171.28,43.36,171.01,44.03z"/>
	<path class="st0" d="M193.44,34.35c-1.41-0.71-3.04-1.06-4.89-1.06h-7.74v17.04h7.74c1.85,0,3.48-0.35,4.89-1.06
		c1.41-0.71,2.52-1.7,3.31-2.97c0.8-1.27,1.19-2.77,1.19-4.49c0-1.74-0.4-3.24-1.19-4.5C195.96,36.04,194.86,35.05,193.44,34.35z
		 M193.26,44.61c-0.46,0.8-1.11,1.41-1.95,1.84c-0.84,0.43-1.82,0.65-2.96,0.65h-3.6V36.53h3.6c1.14,0,2.12,0.22,2.96,0.65
		c0.84,0.43,1.49,1.04,1.95,1.83c0.46,0.79,0.69,1.72,0.69,2.81C193.96,42.88,193.73,43.82,193.26,44.61z"/>
	<polygon class="st0" points="224.36,40.01 216.62,40.01 216.62,33.29 212.68,33.29 212.68,50.33 216.62,50.33 216.62,43.34 
		224.36,43.34 224.36,50.33 228.31,50.33 228.31,33.29 224.36,33.29 	"/>
	<polygon class="st0" points="238.7,43.22 246.61,43.22 246.61,40.15 238.7,40.15 238.7,36.45 247.66,36.45 247.66,33.29 
		234.78,33.29 234.78,50.33 247.98,50.33 247.98,47.17 238.7,47.17 	"/>
	<path class="st0" d="M264.87,44.85c1.1-0.49,1.96-1.19,2.56-2.11c0.6-0.92,0.9-2.01,0.9-3.27c0-1.28-0.3-2.39-0.9-3.31
		c-0.6-0.93-1.45-1.64-2.56-2.13c-1.1-0.5-2.42-0.74-3.94-0.74h-7.38v17.04h3.94v-4.75h3.43c0.06,0,0.12-0.01,0.18-0.01l3.28,4.75
		h4.26l-3.81-5.46C264.85,44.86,264.86,44.86,264.87,44.85z M263.44,37.28c0.6,0.52,0.9,1.25,0.9,2.19c0,0.93-0.3,1.65-0.9,2.18
		c-0.6,0.53-1.51,0.79-2.73,0.79h-3.21V36.5h3.21C261.93,36.5,262.84,36.76,263.44,37.28z"/>
	<path class="st0" d="M288.79,35.51c-0.84-0.8-1.82-1.41-2.95-1.85c-1.13-0.44-2.37-0.66-3.71-0.66c-1.33,0-2.57,0.22-3.7,0.66
		c-1.14,0.44-2.13,1.05-2.97,1.85s-1.5,1.73-1.96,2.8c-0.46,1.07-0.69,2.24-0.69,3.51c0,1.27,0.23,2.43,0.69,3.51
		c0.46,1.07,1.11,2,1.95,2.8c0.84,0.8,1.83,1.41,2.97,1.85c1.14,0.44,2.39,0.66,3.74,0.66c1.33,0,2.56-0.22,3.69-0.66
		c1.13-0.44,2.11-1.05,2.95-1.84c0.84-0.79,1.49-1.72,1.96-2.8c0.47-1.08,0.71-2.25,0.71-3.52c0-1.28-0.24-2.45-0.71-3.52
		C290.28,37.23,289.63,36.3,288.79,35.51z M287.06,44.03c-0.27,0.67-0.65,1.24-1.13,1.73c-0.49,0.49-1.05,0.86-1.69,1.12
		c-0.64,0.26-1.34,0.39-2.11,0.39c-0.76,0-1.47-0.13-2.12-0.39c-0.65-0.26-1.21-0.63-1.69-1.12c-0.48-0.49-0.85-1.07-1.12-1.74
		c-0.27-0.67-0.4-1.41-0.4-2.2c0-0.81,0.13-1.55,0.4-2.22c0.27-0.67,0.64-1.24,1.13-1.73c0.49-0.49,1.05-0.86,1.69-1.12
		c0.64-0.26,1.34-0.39,2.11-0.39c0.76,0,1.47,0.13,2.12,0.39c0.65,0.26,1.21,0.63,1.69,1.12c0.48,0.49,0.85,1.06,1.12,1.73
		c0.27,0.67,0.4,1.4,0.4,2.22S287.33,43.36,287.06,44.03z"/>
	<path class="st0" d="M309.14,43.13c-0.37-0.58-0.84-1.05-1.42-1.41c-0.58-0.36-1.23-0.64-1.94-0.85c-0.71-0.21-1.41-0.4-2.12-0.56
		c-0.71-0.16-1.35-0.32-1.94-0.49c-0.58-0.16-1.06-0.38-1.41-0.65c-0.36-0.27-0.54-0.62-0.54-1.06c0-0.37,0.11-0.7,0.32-0.99
		c0.21-0.28,0.56-0.51,1.05-0.69c0.49-0.18,1.11-0.27,1.87-0.27c0.76,0,1.54,0.11,2.34,0.33c0.8,0.22,1.59,0.56,2.39,1.01l1.22-2.99
		c-0.8-0.5-1.71-0.88-2.75-1.13c-1.04-0.25-2.09-0.38-3.17-0.38c-1.61,0-2.94,0.24-4,0.72c-1.06,0.48-1.86,1.12-2.39,1.92
		c-0.53,0.8-0.79,1.69-0.79,2.67c0,0.91,0.18,1.66,0.55,2.24s0.84,1.06,1.42,1.41c0.58,0.36,1.23,0.65,1.94,0.88
		c0.71,0.23,1.41,0.42,2.12,0.57c0.71,0.15,1.35,0.32,1.94,0.49c0.58,0.17,1.05,0.39,1.41,0.66c0.36,0.27,0.54,0.63,0.54,1.08
		c0,0.36-0.11,0.67-0.34,0.95c-0.23,0.28-0.58,0.49-1.06,0.64c-0.48,0.15-1.11,0.23-1.89,0.23c-1.02,0-2.03-0.17-3.03-0.5
		c-1-0.33-1.86-0.76-2.59-1.28l-1.34,2.97c0.76,0.58,1.77,1.06,3.02,1.42c1.25,0.37,2.56,0.55,3.92,0.55c1.62,0,2.97-0.24,4.03-0.73
		c1.06-0.49,1.86-1.13,2.4-1.92c0.54-0.8,0.8-1.67,0.8-2.63C309.69,44.45,309.51,43.71,309.14,43.13z"/>
</g>
<g>
	<path class="st0" d="M102.59,64.01c-0.07-0.03-0.15-0.04-0.23-0.07c0.3-0.15,0.54-0.35,0.72-0.62c0.19-0.29,0.29-0.62,0.29-1.01
		c0-0.58-0.23-1.04-0.7-1.39c-0.47-0.35-1.17-0.53-2.1-0.53h-3.62v7.4h3.83c0.97,0,1.71-0.18,2.21-0.53
		c0.5-0.36,0.75-0.85,0.75-1.49c0-0.43-0.1-0.79-0.3-1.09C103.23,64.38,102.95,64.16,102.59,64.01z M100.34,61.68
		c0.42,0,0.73,0.07,0.96,0.22c0.22,0.14,0.33,0.36,0.33,0.65c0,0.3-0.11,0.52-0.33,0.66c-0.22,0.14-0.54,0.22-0.96,0.22h-1.7v-1.74
		H100.34z M101.65,66.28c-0.23,0.14-0.57,0.22-1.01,0.22h-2v-1.83h2c0.44,0,0.78,0.08,1.01,0.23c0.23,0.15,0.34,0.38,0.34,0.69
		C101.99,65.91,101.88,66.14,101.65,66.28z"/>
	<polygon class="st0" points="112.44,64.7 115.88,64.7 115.88,63.37 112.44,63.37 112.44,61.76 116.33,61.76 116.33,60.39 
		110.74,60.39 110.74,67.79 116.47,67.79 116.47,66.41 112.44,66.41 	"/>
	<polygon class="st0" points="137.32,63.3 133.96,63.3 133.96,60.39 132.24,60.39 132.24,67.79 133.96,67.79 133.96,64.75 
		137.32,64.75 137.32,67.79 139.03,67.79 139.03,60.39 137.32,60.39 	"/>
	<polygon class="st0" points="148.2,64.7 151.63,64.7 151.63,63.37 148.2,63.37 148.2,61.76 152.09,61.76 152.09,60.39 146.5,60.39 
		146.5,67.79 152.23,67.79 152.23,66.41 148.2,66.41 	"/>
	<path class="st0" d="M164.22,65.41c0.48-0.21,0.85-0.52,1.11-0.91c0.26-0.4,0.39-0.87,0.39-1.42c0-0.56-0.13-1.04-0.39-1.44
		c-0.26-0.4-0.63-0.71-1.11-0.92c-0.48-0.22-1.05-0.32-1.71-0.32h-3.2v7.4h1.71v-2.06h1.49c0.03,0,0.05-0.01,0.08-0.01l1.42,2.07
		h1.85l-1.65-2.37C164.2,65.41,164.21,65.41,164.22,65.41z M163.59,62.12c0.26,0.23,0.39,0.54,0.39,0.95c0,0.4-0.13,0.72-0.39,0.95
		c-0.26,0.23-0.66,0.34-1.18,0.34h-1.4v-2.58h1.4C162.94,61.78,163.33,61.89,163.59,62.12z"/>
	<path class="st0" d="M179.26,61.35c-0.36-0.35-0.79-0.61-1.28-0.8c-0.49-0.19-1.03-0.29-1.61-0.29c-0.58,0-1.11,0.09-1.61,0.29
		c-0.49,0.19-0.92,0.46-1.29,0.8c-0.37,0.35-0.65,0.75-0.85,1.22c-0.2,0.47-0.3,0.97-0.3,1.52c0,0.55,0.1,1.06,0.3,1.52
		c0.2,0.47,0.48,0.87,0.85,1.22c0.36,0.35,0.79,0.61,1.29,0.8c0.5,0.19,1.04,0.29,1.62,0.29c0.58,0,1.11-0.09,1.6-0.29
		c0.49-0.19,0.92-0.46,1.28-0.8c0.36-0.34,0.65-0.75,0.85-1.22c0.2-0.47,0.31-0.98,0.31-1.53c0-0.56-0.1-1.07-0.31-1.53
		C179.9,62.1,179.62,61.69,179.26,61.35z M178.5,65.05c-0.12,0.29-0.28,0.54-0.49,0.75c-0.21,0.21-0.46,0.37-0.73,0.49
		c-0.28,0.11-0.58,0.17-0.91,0.17s-0.64-0.06-0.92-0.17c-0.28-0.11-0.53-0.28-0.73-0.49c-0.21-0.21-0.37-0.46-0.49-0.76
		c-0.12-0.29-0.17-0.61-0.17-0.96c0-0.35,0.06-0.67,0.17-0.96c0.12-0.29,0.28-0.54,0.49-0.75c0.21-0.21,0.46-0.37,0.73-0.49
		c0.28-0.11,0.58-0.17,0.91-0.17s0.64,0.06,0.92,0.17c0.28,0.11,0.53,0.28,0.73,0.49c0.21,0.21,0.37,0.46,0.49,0.75
		c0.12,0.29,0.17,0.61,0.17,0.96C178.68,64.44,178.62,64.76,178.5,65.05z"/>
	<path class="st0" d="M200.83,64.04c-0.25-0.15-0.53-0.28-0.84-0.37c-0.31-0.09-0.61-0.17-0.92-0.24c-0.31-0.07-0.59-0.14-0.84-0.21
		c-0.25-0.07-0.46-0.16-0.61-0.28c-0.15-0.12-0.23-0.27-0.23-0.46c0-0.16,0.05-0.3,0.14-0.43c0.09-0.12,0.24-0.22,0.45-0.3
		c0.21-0.08,0.48-0.12,0.81-0.12c0.33,0,0.67,0.05,1.01,0.14c0.35,0.1,0.69,0.24,1.04,0.44l0.53-1.3c-0.35-0.22-0.74-0.38-1.19-0.49
		c-0.45-0.11-0.91-0.16-1.37-0.16c-0.7,0-1.28,0.1-1.74,0.31c-0.46,0.21-0.81,0.49-1.04,0.84c-0.23,0.35-0.34,0.73-0.34,1.16
		c0,0.4,0.08,0.72,0.24,0.97c0.16,0.25,0.36,0.46,0.62,0.61c0.25,0.16,0.53,0.28,0.84,0.38c0.31,0.1,0.61,0.18,0.92,0.25
		c0.31,0.07,0.59,0.14,0.84,0.21c0.25,0.07,0.46,0.17,0.61,0.29c0.15,0.12,0.23,0.27,0.23,0.47c0,0.15-0.05,0.29-0.15,0.41
		c-0.1,0.12-0.25,0.21-0.46,0.28c-0.21,0.07-0.48,0.1-0.82,0.1c-0.44,0-0.88-0.07-1.32-0.22c-0.43-0.14-0.81-0.33-1.13-0.56
		l-0.58,1.29c0.33,0.25,0.77,0.46,1.31,0.62c0.54,0.16,1.11,0.24,1.7,0.24c0.7,0,1.29-0.11,1.75-0.32c0.46-0.21,0.81-0.49,1.04-0.84
		c0.23-0.35,0.35-0.73,0.35-1.14c0-0.39-0.08-0.71-0.24-0.96C201.29,64.4,201.08,64.2,200.83,64.04z"/>
	<path class="st0" d="M210.9,60.39l-3.3,7.4h1.75l0.66-1.59h3.43l0.66,1.59h1.8l-3.31-7.4H210.9z M210.55,64.9l1.18-2.83l1.17,2.83
		H210.55z"/>
	<polygon class="st0" points="225.1,65.67 222.85,60.39 221,60.39 224.2,67.79 225.89,67.79 229.09,60.39 227.39,60.39 	"/>
	<polygon class="st0" points="237.12,64.7 240.55,64.7 240.55,63.37 237.12,63.37 237.12,61.76 241.01,61.76 241.01,60.39 
		235.41,60.39 235.41,67.79 241.14,67.79 241.14,66.41 237.12,66.41 	"/>
	<polygon class="st0" points="258.63,60.39 256.92,60.39 256.92,67.79 262.34,67.79 262.34,66.39 258.63,66.39 	"/>
	<rect x="269.01" y="60.39" class="st0" width="1.71" height="7.4"/>
	<polygon class="st0" points="281.28,65.67 279.03,60.39 277.18,60.39 280.37,67.79 282.06,67.79 285.26,60.39 283.56,60.39 	"/>
	<polygon class="st0" points="293.29,64.7 296.73,64.7 296.73,63.37 293.29,63.37 293.29,61.76 297.18,61.76 297.18,60.39 
		291.59,60.39 291.59,67.79 297.32,67.79 297.32,66.41 293.29,66.41 	"/>
	<path class="st0" d="M309.72,64.66c-0.16-0.25-0.36-0.46-0.62-0.61c-0.25-0.15-0.53-0.28-0.84-0.37c-0.31-0.09-0.61-0.17-0.92-0.24
		c-0.31-0.07-0.59-0.14-0.84-0.21c-0.25-0.07-0.46-0.16-0.61-0.28c-0.16-0.12-0.23-0.27-0.23-0.46c0-0.16,0.05-0.3,0.14-0.43
		c0.09-0.12,0.24-0.22,0.45-0.3c0.21-0.08,0.48-0.12,0.81-0.12c0.33,0,0.67,0.05,1.02,0.14c0.35,0.1,0.69,0.24,1.04,0.44l0.53-1.3
		c-0.35-0.22-0.74-0.38-1.19-0.49c-0.45-0.11-0.91-0.16-1.38-0.16c-0.7,0-1.28,0.1-1.74,0.31c-0.46,0.21-0.81,0.49-1.04,0.84
		c-0.23,0.35-0.34,0.73-0.34,1.16c0,0.4,0.08,0.72,0.24,0.97c0.16,0.25,0.36,0.46,0.62,0.61c0.25,0.16,0.53,0.28,0.84,0.38
		c0.31,0.1,0.61,0.18,0.92,0.25c0.31,0.07,0.59,0.14,0.84,0.21c0.25,0.07,0.46,0.17,0.61,0.29c0.16,0.12,0.23,0.27,0.23,0.47
		c0,0.15-0.05,0.29-0.15,0.41c-0.1,0.12-0.25,0.21-0.46,0.28c-0.21,0.07-0.48,0.1-0.82,0.1c-0.44,0-0.88-0.07-1.32-0.22
		c-0.43-0.14-0.81-0.33-1.13-0.56l-0.58,1.29c0.33,0.25,0.77,0.46,1.31,0.62c0.54,0.16,1.11,0.24,1.7,0.24
		c0.7,0,1.29-0.11,1.75-0.32c0.46-0.21,0.81-0.49,1.04-0.84c0.23-0.35,0.35-0.73,0.35-1.14C309.96,65.23,309.88,64.91,309.72,64.66z
		"/>
</g>
<g>
	<linearGradient id="SVGID_1_" gradientUnits="userSpaceOnUse" x1="-14.2252" y1="23.5948" x2="138.0166" y2="101.632">
		<stop  offset="0.153" style="stop-color:#F36E4C"/>
		<stop  offset="0.3162" style="stop-color:#F93B4C"/>
		<stop  offset="0.4725" style="stop-color:#FD104C"/>
		<stop  offset="0.5521" style="stop-color:#FF004C"/>
		<stop  offset="0.8119" style="stop-color:#FF0E52"/>
	</linearGradient>
	<path class="st1" d="M41.3,100C18.43,100,1.82,84.53,1.82,63.22c0-28.37,29.52-50.69,43.71-61.42c0.33-0.25,0.71-0.38,1.12-0.38
		c0.96,0,1.76,0.73,1.85,1.69c0.28,3.08,1.42,9.07,5.86,14.64c1.02,1.28,2.39,2.83,3.97,4.63c8.1,9.21,21.65,24.63,21.65,40.83
		C79.97,83.84,62.99,100,41.3,100z"/>
	<g>
		<path class="st2" d="M46.65,2.43c0.42,0,0.81,0.31,0.85,0.78c0.26,2.89,1.38,9.29,6.08,15.17c6.3,7.9,25.4,25.9,25.4,44.84
			C78.97,82.15,63.29,99,41.3,99C19.31,99,2.82,84.05,2.82,63.22c0-27.46,28.22-49.21,43.31-60.62C46.3,2.48,46.48,2.43,46.65,2.43
			 M46.65,0.43L46.65,0.43c-0.62,0-1.22,0.2-1.72,0.58C30.61,11.83,0.82,34.35,0.82,63.22c0,10.6,4.13,20.25,11.64,27.17
			C19.87,97.23,30.12,101,41.3,101c10.94,0,21.05-4.04,28.49-11.37c7.21-7.12,11.19-16.5,11.19-26.41
			c0-16.58-13.71-32.17-21.9-41.49c-1.57-1.79-2.93-3.33-3.94-4.59c-4.44-5.57-5.43-11.72-5.65-14.1
			C49.36,1.55,48.14,0.43,46.65,0.43L46.65,0.43z"/>
	</g>
</g>
</svg>
